<svg id="Layer_1" data-name="Layer 1" xmlns="http://www.w3.org/2000/svg" viewBox="0 0 639.99 493.34"><defs><style>.cls-1{fill:#2f226e;}.cls-2{fill:#fff;}</style></defs><title>Blob</title><path class="cls-1" d="M602.88,197.72,594.08,169a135.19,135.19,0,0,0-29.48-51.58L529.72,79.28a135.27,135.27,0,0,0-99.84-44H358.19a135.26,135.26,0,0,0-46.74,8.33L180.86,91.7a135.37,135.37,0,0,0-52.53,35.05l-62.92,68a135.21,135.21,0,0,0-32.74,62.43h0A135.27,135.27,0,0,0,68,381.17l51.11,52.28a135.25,135.25,0,0,0,146.44,31.24L367,424.56a135.53,135.53,0,0,1,17-5.46l90.07-22.43a135.26,135.26,0,0,0,56.25-29.34l32.11-28A135.27,135.27,0,0,0,602.88,197.72Z"/><circle class="cls-2" cx="535.61" cy="290.66" r="4.98"/><circle class="cls-2" cx="562.8" cy="199.78" r="4.98"/><circle class="cls-2" cx="434.71" cy="74.27" r="4.98"/><circle class="cls-2" cx="366.87" cy="285.67" r="2.49"/><circle class="cls-2" cx="260.59" cy="203.11" r="2.49"/><circle class="cls-2" cx="514.24" cy="143.96" r="1.76"/><circle class="cls-2" cx="448.94" cy="239.13" r="1.76"/><circle class="cls-2" cx="331.82" cy="344.01" r="1.76"/><circle class="cls-2" cx="114.9" cy="369.71" r="1.76"/><circle class="cls-2" cx="376.02" cy="204.87" r="1.76"/><circle class="cls-2" cx="434.71" cy="389.9" r="1.76"/><circle class="cls-2" cx="199.22" cy="156.98" r="1.76"/><circle class="cls-2" cx="199.22" cy="297.4" r="1.76"/><circle class="cls-2" cx="212.7" cy="436.44" r="3.67"/><circle class="cls-2" cx="448.94" cy="164.45" r="3.67"/><circle class="cls-2" cx="283.22" cy="99.9" r="3.67"/><circle class="cls-2" cx="90.62" cy="244.56" r="3.67"/><circle class="cls-2" cx="258.1" cy="309.19" r="3.67"/></svg>