<svg id="Layer_1" data-name="Layer 1" xmlns="http://www.w3.org/2000/svg" viewBox="0 0 114.55 326.54"><defs><style>.cls-1{fill:#f22b29;}.cls-2{fill:#f6511d;}.cls-3{fill:#f49d37;}</style></defs><title>Rocket</title><rect class="cls-1" x="23.96" y="264.72" width="65.99" height="3.73"/><rect class="cls-1" x="23.96" y="252.98" width="65.99" height="3.73"/><rect class="cls-1" x="23.96" y="166.92" width="65.99" height="3.73"/><path class="cls-2" d="M57,294.55s-5,1.2-5,4.35v2h9.93v-2C61.92,295.75,57,294.55,57,294.55Z"/><path class="cls-2" d="M45.22,294.55s-5,1.2-5,4.35v2h9.93v-2C50.18,295.75,45.22,294.55,45.22,294.55Z"/><path class="cls-2" d="M68.7,294.55s-5,1.2-5,4.35v2h9.92v-2C73.66,295.75,68.7,294.55,68.7,294.55Z"/><path class="cls-3" d="M57,3.68S37.58,24,37.58,56.33v239.5H76.33V56.33C76.33,24,57,3.68,57,3.68Z"/><path class="cls-3" d="M45.22,300.89a7.33,7.33,0,0,0-4.4,6.82c0,5.13,4.4,15.15,4.4,15.15s4.4-10,4.4-15.15A7.33,7.33,0,0,0,45.22,300.89Z"/><path class="cls-2" d="M45.22,301.94a5.16,5.16,0,0,0-3.09,4.79c0,3.6,3.09,10.62,3.09,10.62s3.08-7,3.08-10.62A5.16,5.16,0,0,0,45.22,301.94Z"/><path class="cls-1" d="M45.22,302.89a2.43,2.43,0,0,0-1.46,2.26c0,1.7,1.46,5,1.46,5s1.46-3.32,1.46-5A2.43,2.43,0,0,0,45.22,302.89Z"/><path class="cls-3" d="M57,300.89a7.33,7.33,0,0,0-4.4,6.82c0,5.13,4.4,15.15,4.4,15.15s4.4-10,4.4-15.15A7.33,7.33,0,0,0,57,300.89Z"/><path class="cls-2" d="M57,301.94a5.16,5.16,0,0,0-3.09,4.79c0,3.6,3.09,10.62,3.09,10.62s3.08-7,3.08-10.62A5.16,5.16,0,0,0,57,301.94Z"/><path class="cls-1" d="M57,302.89a2.43,2.43,0,0,0-1.46,2.26c0,1.7,1.46,5,1.46,5s1.46-3.32,1.46-5A2.43,2.43,0,0,0,57,302.89Z"/><path class="cls-3" d="M68.7,300.89a7.33,7.33,0,0,0-4.4,6.82c0,5.13,4.4,15.15,4.4,15.15s4.4-10,4.4-15.15A7.33,7.33,0,0,0,68.7,300.89Z"/><path class="cls-2" d="M68.7,301.94a5.16,5.16,0,0,0-3.09,4.79c0,3.6,3.09,10.62,3.09,10.62s3.08-7,3.08-10.62A5.16,5.16,0,0,0,68.7,301.94Z"/><path class="cls-1" d="M68.7,302.89a2.43,2.43,0,0,0-1.46,2.26c0,1.7,1.46,5,1.46,5s1.46-3.32,1.46-5A2.43,2.43,0,0,0,68.7,302.89Z"/><path class="cls-3" d="M94.92,274.59s-5,1.2-5,4.34v2h9.93v-2C99.88,275.79,94.92,274.59,94.92,274.59Z"/><path class="cls-3" d="M94.92,280.92a7.34,7.34,0,0,0-4.4,6.82c0,5.13,4.4,15.15,4.4,15.15s4.4-10,4.4-15.15A7.34,7.34,0,0,0,94.92,280.92Z"/><path class="cls-2" d="M94.92,282a5.16,5.16,0,0,0-3.09,4.79c0,3.6,3.09,10.62,3.09,10.62s3.08-7,3.08-10.62A5.16,5.16,0,0,0,94.92,282Z"/><path class="cls-1" d="M94.92,282.92a2.43,2.43,0,0,0-1.46,2.26c0,1.71,1.46,5,1.46,5s1.46-3.32,1.46-5A2.43,2.43,0,0,0,94.92,282.92Z"/><path class="cls-3" d="M19.63,274.59s-5,1.2-5,4.34v2h9.92v-2C24.59,275.79,19.63,274.59,19.63,274.59Z"/><path class="cls-3" d="M19.63,280.92a7.34,7.34,0,0,0-4.4,6.82c0,5.13,4.4,15.15,4.4,15.15s4.4-10,4.4-15.15A7.34,7.34,0,0,0,19.63,280.92Z"/><path class="cls-2" d="M19.63,282a5.16,5.16,0,0,0-3.09,4.79c0,3.6,3.09,10.62,3.09,10.62s3.08-7,3.08-10.62A5.16,5.16,0,0,0,19.63,282Z"/><path class="cls-1" d="M19.63,282.92a2.43,2.43,0,0,0-1.46,2.26c0,1.71,1.46,5,1.46,5s1.46-3.32,1.46-5A2.43,2.43,0,0,0,19.63,282.92Z"/><path class="cls-2" d="M94.92,130.51a40.62,40.62,0,0,0-9.69,26.32V276.58H104.6V156.83A40.64,40.64,0,0,0,94.92,130.51Z"/><path class="cls-2" d="M19.63,130.51a40.62,40.62,0,0,0-9.69,26.32V276.58H29.32V156.83A40.62,40.62,0,0,0,19.63,130.51Z"/><circle class="cls-1" cx="56.96" cy="67.94" r="7.34"/><circle class="cls-1" cx="56.96" cy="94.75" r="7.34"/><circle class="cls-1" cx="56.96" cy="121.55" r="7.34"/><circle class="cls-1" cx="56.96" cy="275.63" r="3.09"/></svg>