<svg id="Layer_1" data-name="Layer 1" xmlns="http://www.w3.org/2000/svg" xmlns:xlink="http://www.w3.org/1999/xlink" viewBox="0 0 393.49 236.17"><defs><style>.cls-1{fill:none;}.cls-2{fill:#f49d37;}.cls-3{fill:#f6511d;}.cls-4{clip-path:url(#clip-path);}.cls-5{fill:#f22b29;}</style><clipPath id="clip-path"><circle class="cls-1" cx="190.34" cy="115.57" r="97.88"/></clipPath></defs><title>A_Saturn</title><path class="cls-2" d="M381.3,27.56C369.19,3.3,275.86,25.29,172.84,76.68S-3.88,189.41,8.22,213.67s105.43,2.27,208.45-49.12S393.4,51.82,381.3,27.56ZM51.6,192C41.23,171.24,96.92,122.42,176,83S327.55,28.41,337.92,49.2,292.6,118.81,213.54,158.26,62,212.82,51.6,192Z"/><circle class="cls-3" cx="190.34" cy="115.57" r="97.88"/><g class="cls-4"><path class="cls-5" d="M82.36,145.55s66,4.1,101.92,28.25,76.94,11.9,80.72,12,.51,49.68.51,49.68L123.3,218.25Z"/><path class="cls-5" d="M83.62,86.92s39.78-36.73,66.64-17S189.88,102,218.1,96.7,275,71.4,283.78,85.26s22.12-11.8,22.12-11.8-34.83-13.73-51.36-2.88-58,18-71.21,10.07c-11.06-6.63-34.28-28.8-47.39-28.43S94,69.54,94,69.54Z"/><path class="cls-5" d="M298.15,116.46S267.86,163.93,241,144.24,193,111.78,161.86,100.41c-27-9.85-70.73-12.65-86,5-10.7,12.43,0,24.46,0,24.46s34.83,13.73,51.36,2.88,54.36-3.75,67.53,4.14c11.06,6.64,34.28,28.8,47.39,28.43s50.93-10.08,50.93-10.08Z"/></g><path class="cls-2" d="M381.3,27.56C372.52,10,321,16.7,254.12,41.32a844.7,844.7,0,0,0-161.43,81C34.58,160.24-.41,196.38,8.22,213.67c8.92,17.88,61.94,10.64,130.45-15a95.38,95.38,0,0,1-9.4-6.65C88.33,204,58,204.92,51.6,192c-6.16-12.34,11-34.56,42.45-58.84C115.59,116.58,143.86,99,176,83c30.69-15.31,60.39-27,85.85-34.26,40.14-11.51,69.74-12.24,76.09.48,6.61,13.26-13.66,37.93-49.73,64.3,0,.69,0,1.37,0,2.07,0,3.09-.15,6.14-.43,9.16C351.28,84.71,390.36,45.74,381.3,27.56Z"/></svg>