<svg width="616" height="800" xmlns="http://www.w3.org/2000/svg">
 <defs>
  <style>.cls-1{fill:#2f226e;}.cls-2{fill:#fff;}</style>
 </defs>
 <title>Space</title>
 <g>
  <title>background</title>
  <rect fill="none" id="canvas_background" height="802" width="618" y="-1" x="-1"/>
 </g>
 <g>
  <title>Layer 1</title>
  <rect stroke="null" id="svg_1" height="800" width="616" y="0.42" class="cls-1"/>
  <circle id="svg_2" r="4.98" cy="307.89" cx="546.71" class="cls-2"/>
  <circle id="svg_3" r="2.49" cy="213.58" cx="540.69" class="cls-2"/>
  <circle id="svg_4" r="1.76" cy="316.23" cx="655.74" class="cls-2"/>
  <circle id="svg_5" r="1.76" cy="236.85" cx="583.46" class="cls-2"/>
  <circle id="svg_6" r="1.76" cy="256.03" cx="499.88" class="cls-2"/>
  <circle id="svg_7" r="3.67" cy="283.72" cx="611.08" class="cls-2"/>
  <circle id="svg_8" r="3.67" cy="257.79" cx="734.2" class="cls-2"/>
  <circle id="svg_9" r="4.98" cy="271.91" cx="326.35" class="cls-2"/>
  <circle id="svg_10" r="2.49" cy="120.71" cx="338.83" class="cls-2"/>
  <circle id="svg_11" r="1.76" cy="356.17" cx="356.46" class="cls-2"/>
  <circle id="svg_12" r="1.76" cy="323.51" cx="471.41" class="cls-2"/>
  <circle id="svg_13" r="1.76" cy="70.49" cx="340.59" class="cls-2"/>
  <circle id="svg_14" r="1.76" cy="226.29" cx="303.75" class="cls-2"/>
  <circle id="svg_15" r="1.76" cy="60.59" cx="424.55" class="cls-2"/>
  <circle id="svg_16" r="3.67" cy="134.88" cx="434.83" class="cls-2"/>
  <circle id="svg_17" r="3.67" cy="174.4" cx="496.21" class="cls-2"/>
  <circle id="svg_18" r="4.98" cy="85.27" cx="168.6" class="cls-2"/>
  <circle id="svg_19" r="2.49" cy="79.25" cx="262.92" class="cls-2"/>
  <circle id="svg_20" r="1.76" cy="131.98" cx="136.96" class="cls-2"/>
  <circle id="svg_21" r="1.76" cy="72.26" cx="206.35" class="cls-2"/>
  <circle id="svg_22" r="1.76" cy="192.54" cx="265.41" class="cls-2"/>
  <circle id="svg_23" r="1.76" cy="139.23" cx="296.41" class="cls-2"/>
  <circle id="svg_24" r="3.67" cy="149.64" cx="192.78" class="cls-2"/>
  <circle id="svg_25" r="3.67" cy="220.86" cx="224.14" class="cls-2"/>
  <circle id="svg_26" r="4.98" cy="363.48" cx="98.23" class="cls-2"/>
  <circle id="svg_27" r="4.98" cy="507.73" cx="72.8" class="cls-2"/>
  <circle id="svg_28" r="2.49" cy="357.46" cx="192.55" class="cls-2"/>
  <circle id="svg_29" r="1.76" cy="410.19" cx="66.59" class="cls-2"/>
  <circle id="svg_30" r="1.76" cy="472.51" cx="89.9" class="cls-2"/>
  <circle id="svg_31" r="1.76" cy="342.95" cx="272.77" class="cls-2"/>
  <circle id="svg_32" r="1.76" cy="350.47" cx="135.98" class="cls-2"/>
  <circle id="svg_33" r="1.76" cy="286.29" cx="103.22" class="cls-2"/>
  <circle id="svg_34" r="1.76" cy="417.44" cx="226.04" class="cls-2"/>
  <circle id="svg_35" r="3.67" cy="280.05" cx="185.44" class="cls-2"/>
  <circle id="svg_36" r="3.67" cy="499.08" cx="153.77" class="cls-2"/>
  <circle id="svg_37" r="3.67" cy="424.28" cx="291.56" class="cls-2"/>
  <circle id="svg_38" r="1.76" cy="20.96" cx="324.52" class="cls-2"/>
  <circle id="svg_39" r="3.67" cy="27.2" cx="242.29" class="cls-2"/>
  <circle id="svg_40" r="4.98" cy="78.26" cx="707.55" class="cls-2"/>
  <circle id="svg_41" r="4.98" cy="272.47" cx="439.8" class="cls-2"/>
  <circle id="svg_42" r="2.49" cy="84.28" cx="613.24" class="cls-2"/>
  <circle id="svg_43" r="2.49" cy="212.8" cx="370.84" class="cls-2"/>
  <circle id="svg_44" r="1.76" cy="31.55" cx="739.19" class="cls-2"/>
  <circle id="svg_45" r="1.76" cy="269.63" cx="400.76" class="cls-2"/>
  <circle id="svg_46" r="1.76" cy="41.51" cx="636.51" class="cls-2"/>
  <circle id="svg_47" r="1.76" cy="98.79" cx="533.01" class="cls-2"/>
  <circle id="svg_48" r="1.76" cy="91.27" cx="669.81" class="cls-2"/>
  <circle id="svg_49" r="1.76" cy="155.45" cx="702.57" class="cls-2"/>
  <circle id="svg_50" r="1.76" cy="172.61" cx="360.19" class="cls-2"/>
  <circle id="svg_51" r="1.76" cy="24.3" cx="579.75" class="cls-2"/>
  <circle id="svg_52" r="3.67" cy="161.69" cx="620.34" class="cls-2"/>
  <circle id="svg_53" r="3.67" cy="200.47" cx="401.78" class="cls-2"/>
  <circle id="svg_54" r="3.67" cy="17.46" cx="514.23" class="cls-2"/>
  <circle id="svg_55" r="4.98" cy="620.57" cx="374.46" class="cls-2"/>
  <circle id="svg_56" r="4.98" cy="646" cx="518.71" class="cls-2"/>
  <circle id="svg_57" r="2.49" cy="634.34" cx="185.44" class="cls-2"/>
  <circle id="svg_58" r="2.49" cy="581.07" cx="580.86" class="cls-2"/>
  <circle id="svg_59" r="1.76" cy="628.455455" cx="483.5" class="cls-2"/>
  <circle id="svg_60" r="1.76" cy="607.95" cx="55.22" class="cls-2"/>
  <circle id="svg_61" r="1.76" cy="615.59" cx="297.28" class="cls-2"/>
  <circle id="svg_62" r="1.76" cy="461.39" cx="511.97" class="cls-2"/>
  <circle id="svg_63" r="3.67" cy="517.6" cx="227.8" class="cls-2"/>
  <circle id="svg_64" r="3.67" cy="630.67" cx="614.75" class="cls-2"/>
  <circle id="svg_65" r="3.67" cy="357.93" cx="511.97" class="cls-2"/>
  <circle id="svg_66" r="4.98" cy="384.4" cx="729.22" class="cls-2"/>
  <circle id="svg_67" r="4.98" cy="487.25" cx="575.88" class="cls-2"/>
  <circle id="svg_68" r="1.76" cy="443.2" cx="687.74" class="cls-2"/>
  <circle id="svg_69" r="1.76" cy="548.29" cx="759.1" class="cls-2"/>
  <circle id="svg_70" r="1.76" cy="466.67" cx="733.72" class="cls-2"/>
  <circle id="svg_71" r="1.76" cy="556.74" cx="666.75" class="cls-2"/>
  <circle id="svg_72" r="3.67" cy="490.92" cx="700.19" class="cls-2"/>
  <circle id="svg_73" r="3.67" cy="424.28" cx="622.09" class="cls-2"/>
  <circle id="svg_74" r="3.67" cy="567.87" cx="618.42" class="cls-2"/>
  <circle id="svg_75" r="4.98" cy="35.85" cx="51.92" class="cls-2"/>
  <circle id="svg_76" r="4.98" cy="487.43" cx="345.61" class="cls-2"/>
  <circle id="svg_77" r="2.49" cy="372.27" cx="421.23" class="cls-2"/>
  <circle id="svg_78" r="1.76" cy="465.09" cx="407.46" class="cls-2"/>
  <circle id="svg_79" r="1.76" cy="199.74" cx="81.81" class="cls-2"/>
  <circle id="svg_80" r="1.76" cy="118.12" cx="56.43" class="cls-2"/>
  <circle id="svg_81" r="1.76" cy="522.25" cx="397.67" class="cls-2"/>
  <circle id="svg_82" r="1.76" cy="556.92" cx="436.48" class="cls-2"/>
  <circle id="svg_83" r="3.67" cy="142.36" cx="22.9" class="cls-2"/>
  <circle id="svg_84" r="3.67" cy="424.46" cx="391.83" class="cls-2"/>
  <circle id="svg_85" r="3.67" cy="548.29" cx="508.3" class="cls-2"/>
  <circle id="svg_86" r="4.98" cy="683.57" cx="429.46" class="cls-2"/>
  <circle id="svg_87" r="4.98" cy="703.57" cx="327.46" class="cls-2"/>
  <circle id="svg_88" r="4.98" cy="702.57" cx="93.46" class="cls-2"/>
  <circle stroke="null" id="svg_89" r="2.49" cy="634.34" cx="185.44" class="cls-2"/>
  <circle transform="rotate(78.33888244628906 145.77000427246094,566.0799560546875) " id="svg_90" r="3.67" cy="566.08" cx="145.77" class="cls-2"/>
  <circle id="svg_91" r="1.76" cy="725.76887" cx="500.216415" class="cls-2"/>
  <circle id="svg_92" r="3.67" cy="750.072962" cx="206.093353" class="cls-2"/>
  <circle id="svg_93" r="1.76" cy="556.912369" cx="319.134215" class="cls-2"/>
  <circle id="svg_94" r="1.76" cy="764.375016" cx="408.686438" class="cls-2"/>
 </g>
</svg>