<svg xmlns="http://www.w3.org/2000/svg" data-v-29081953="" width="300" height="300" style=""><rect id="backgroundrect" width="100%" height="100%" x="0" y="0" fill="none" stroke="none"/><!----><defs data-v-29081953=""><linearGradient data-v-29081953="" gradientTransform="rotate(25)" id="7f02381c-c525-4062-96e6-cdba3b720cc4" x1="0%" y1="0%" x2="100%" y2="0%"><stop data-v-29081953="" offset="0%" stop-color="#357ded" stop-opacity="1"/><stop data-v-29081953="" offset="100%" stop-color="#6957bf" stop-opacity="1"/></linearGradient></defs><!----><g class="currentLayer" style=""><title>Layer 1</title><g data-v-29081953="" id="367a9ed9-2d9e-407e-9bee-fe974a5d2e34" fill="url(#7f02381c-c525-4062-96e6-cdba3b720cc4)" stroke="none" class="selected"><path d="M256.01858464495166,44.69488776160925 L150.45634949237746,0.6072373934866657 L44.89411433980333,44.69488776160925 L0.8465629811752617,150.3532222645237 l43.66783108829507,105.65833450291447 L150.45634949237746,300.09920713556085 l105.56223515257416,-43.70758441667326 L300.0661360035798,150.3532222645237 L256.01858464495166,44.69488776160925 zm34.55454460030305,99.95734523117449 l-47.46503379162507,-12.92224234927731 v-2.2803957086959965 c0,-7.601319028986653 -4.1769229736630065,-14.442506155074641 -10.252447298991019,-18.24316566956797 L254.11998329328668,55.33673440219055 l36.453145951968054,89.31549859059318 zM134.50809813839146,189.50001526380498 c-1.139160810999002,-8.74151688333465 -6.075524325328009,-15.962769960871972 -13.29020946165502,-20.143495426814628 l18.986013516650033,-45.987980125369255 c3.4174824329970055,1.140197854347998 6.834964865994011,1.5202638057973303 10.252447298991019,1.5202638057973303 s7.214685136327011,-0.3800659514493327 10.252447298991019,-1.5202638057973303 l23.542656760646036,57.0098927173999 c-3.0377621626640043,2.2803957086959965 -5.316083784662007,5.320923320290656 -6.075524325328009,9.121582834783984 H134.50809813839146 zm58.47692163128208,-11.78204449492931 c-0.7594405406660016,0 -1.5188810813320022,0 -2.6580418923310045,0.3800659514493327 l-23.542656760646036,-57.0098927173999 c4.936363514329008,-2.6604616601453284 8.733566217659014,-6.461121174638655 11.771328380323018,-11.021912592030645 l23.542656760646036,12.92224234927731 c-0.7594405406660016,2.2803957086959965 -1.139160810999002,4.560791417391992 -1.139160810999002,6.841187126087989 c0,7.22125307753732 3.7972027033300058,13.682374252175977 9.113286487992013,17.483033766669298 L196.02278193233758,178.098036720325 c-1.139160810999002,-0.3800659514493327 -1.8986013516650038,-0.3800659514493327 -3.0377621626640043,-0.3800659514493327 zM107.54795894474842,165.55586032249704 c-3.0377621626640043,0 -6.075524325328009,0.3800659514493327 -8.733566217659014,1.5202638057973303 l-21.26433513864803,-44.08765036812258 c3.4174824329970055,-2.6604616601453284 5.695804054995008,-6.841187126087989 5.695804054995008,-11.78204449492931 v-0.3800659514493327 l35.31398514096906,-8.74151688333465 c2.6580418923310045,7.981384980435986 8.353845947326013,14.822572106523973 15.948251353986024,18.623231621017304 l-18.986013516650033,45.60791417391991 c-2.6580418923310045,-0.3800659514493327 -5.316083784662007,-0.7601319028986656 -7.974125676993012,-0.7601319028986656 zm114.29580137023319,-56.62982676595056 c-6.834964865994011,0 -12.530768920989019,3.0405276115946607 -16.327971624319026,7.981384980435986 l-23.542656760646036,-12.92224234927731 c1.8986013516650038,-4.1807254659426585 2.6580418923310045,-8.74151688333465 2.6580418923310045,-13.302308300726642 c0,-3.8006595144933266 -0.7594405406660016,-7.22125307753732 -1.8986013516650038,-10.641846640581312 l64.5524459566101,-26.98468255290262 L226.4004035589776,109.30609950799578 c-1.5188810813320022,-0.3800659514493327 -3.0377621626640043,-0.3800659514493327 -4.556643243996008,-0.3800659514493327 zm-105.18251488224115,-13.302308300726642 l-35.31398514096906,8.74151688333465 c-2.6580418923310045,-4.940857368841324 -7.5944054066600115,-8.361450931885317 -13.669929731988022,-8.361450931885317 h-1.139160810999002 l-13.669929731988022,-42.94745251377459 l64.93216622694311,26.98468255290262 c-1.139160810999002,3.4205935630439943 -1.8986013516650038,6.841187126087989 -1.8986013516650038,10.641846640581312 c0.3797202703330007,1.9003297572466638 0.3797202703330007,3.4205935630439943 0.7594405406660016,4.940857368841324 zm-59.6160824422811,26.224550650003955 c2.6580418923310045,2.6604616601453284 6.455244595661012,4.560791417391992 10.632167569324015,4.560791417391992 c1.139160810999002,0 2.278321621998004,0 3.4174824329970055,-0.3800659514493327 l21.26433513864803,44.08765036812258 c-3.7972027033300058,2.2803957086959965 -6.834964865994011,5.700989271739987 -9.113286487992013,9.501648786233314 L12.238171091165285,150.3532222645237 l44.806991899294076,-28.50494635869995 zM202.09830625766557,180.75849838047031 l14.429370272654023,-30.78534206739594 c1.8986013516650038,0.3800659514493327 3.7972027033300058,0.7601319028986656 5.695804054995008,0.7601319028986656 c8.353845947326013,0 15.948251353986024,-4.940857368841324 18.986013516650033,-12.162110446378643 L287.1556468122577,150.73328821597303 L205.5157886906626,184.55915789496365 c-0.7594405406660016,-1.5202638057973303 -2.278321621998004,-2.6604616601453284 -3.4174824329970055,-3.8006595144933266 zm49.74335541362307,-129.22242349277312 zm-71.76713109293709,22.423891135510626 c-5.316083784662007,-9.501648786233314 -15.188810813320023,-15.962769960871972 -26.200698652977046,-17.102967815219966 V9.348754276821312 l91.13286487992013,37.62652919348393 l-64.93216622694311,26.98468255290262 zm-33.03566351897104,-64.61121174638656 v47.508243931166575 c-11.391608109990017,1.140197854347998 -20.884614868315033,7.601319028986653 -26.200698652977046,17.102967815219966 l-64.93216622694311,-26.98468255290262 l91.13286487992013,-37.62652919348393 zM47.17243596180134,56.09686630508921 l13.29020946165502,41.80725465942659 c-4.556643243996008,2.6604616601453284 -7.5944054066600115,7.601319028986653 -7.5944054066600115,12.92224234927731 c0,1.9003297572466638 0.3797202703330007,3.4205935630439943 1.139160810999002,5.320923320290656 l-42.52867027729606,26.98468255290262 l35.69370541130206,-87.03510288189717 zM8.820688658168265,148.45289250727706 zm1.8986013516650038,7.981384980435986 l70.24825001160511,29.265078261598614 c-0.7594405406660016,2.2803957086959965 -1.139160810999002,4.560791417391992 -1.139160810999002,7.22125307753732 c0,6.461121174638655 2.278321621998004,12.162110446378643 6.075524325328009,17.102967815219966 l-37.592306762967056,38.00659514493326 l-37.592306762967056,-91.59589429928916 zm39.11118784429906,94.6364219108838 zm3.4174824329970055,1.5202638057973303 l37.592306762967056,-38.00659514493326 c4.556643243996008,3.4205935630439943 10.252447298991019,5.700989271739987 16.707691894652026,5.700989271739987 c2.6580418923310045,0 5.316083784662007,-0.3800659514493327 7.5944054066600115,-1.140197854347998 l29.23846081564104,71.07233292102521 l-91.13286487992013,-37.62652919348393 zm67.96992838960709,-36.1062653876866 c7.214685136327011,-4.1807254659426585 12.530768920989019,-11.78204449492931 13.29020946165502,-20.523561378263963 h43.66783108829507 c0.7594405406660016,3.8006595144933266 3.0377621626640043,7.22125307753732 6.455244595661012,9.121582834783984 l-34.17482432997005,82.47431146450518 l-29.23846081564104,-71.07233292102521 zm69.48880947093912,-8.74151688333465 c0.7594405406660016,0 1.5188810813320022,0.3800659514493327 2.278321621998004,0.3800659514493327 c3.0377621626640043,0 5.695804054995008,-0.7601319028986656 7.974125676993012,-2.2803957086959965 l46.705593250959076,46.74811202826792 l-91.13286487992013,37.62652919348393 l34.17482432997005,-82.47431146450518 zm61.89440406427911,39.906924902179924 L205.5157886906626,200.90199380728492 c1.5188810813320022,-2.2803957086959965 2.278321621998004,-4.940857368841324 2.278321621998004,-7.981384980435986 c0,-0.7601319028986656 0,-1.5202638057973303 -0.3797202703330007,-2.2803957086959965 l82.39929866226113,-34.20593563043993 l-37.21258649263406,91.21582834783982 zm39.49090811463206,-99.19721332827584 z" stroke-width="0" id="svg_1"/></g></g></svg>