<?xml version="1.0" encoding="utf-8"?>
<!-- Generator: Adobe Illustrator 23.1.1, SVG Export Plug-In . SVG Version: 6.00 Build 0)  -->
<svg version="1.1" id="Layer_1" xmlns="http://www.w3.org/2000/svg" xmlns:xlink="http://www.w3.org/1999/xlink" x="0px" y="0px"
	 viewBox="0 0 360 360" style="enable-background:new 0 0 360 360;" xml:space="preserve">
<style type="text/css">
	.st0{fill:#10BCFF;}
	.st1{fill:#5B4E8E;}
	.st2{fill:#3FB65F;}
	.st3{fill:none;stroke:#177A2E;stroke-miterlimit:10;}
	.st4{fill:url(#SVGID_1_);}
	.st5{fill:#E2E2E2;}
	.st6{fill:#FFBF41;}
	.st7{fill:none;stroke:#E2E2E2;stroke-miterlimit:10;}
	.st8{fill:#140F2D;}
	.st9{fill:#347DED;}
</style>
<g>
	<polygon class="st8" points="118,112.5 106.1,100.5 106.1,151.6 123.3,168.9 123.3,299.4 159.4,335.5 159.4,153.9 118,112.5 "/>
	<polygon class="st9" points="84.1,118.6 53.4,149.3 47.9,154.7 47.9,224 84.1,260.1 84.1,169.7 102.2,151.6 102.2,100.5 "/>
	<polygon class="st8" points="255.6,100.5 255.6,151.6 275.9,171.9 275.9,259.3 312.1,223.2 312.1,157 "/>
	<polygon class="st9" points="199,153.2 199,336.2 235.2,300 235.2,168.2 251.7,151.6 251.7,100.5 "/>
	<polygon class="st9" points="123.3,79.4 123.3,112.3 159.4,148.4 159.4,94.3 177,76.8 177,25.7 "/>
	<polygon class="st8" points="235.2,80.1 199,43.9 180.8,25.7 180.8,76.8 199,95 199,147.7 235.2,111.5 "/>
</g>
</svg>
