<svg data-v-29081953="" xmlns="http://www.w3.org/2000/svg" viewBox="0 0 300 300"><!----><defs data-v-29081953=""><linearGradient data-v-29081953="" gradientTransform="rotate(25)" id="7f02381c-c525-4062-96e6-cdba3b720cc4" x1="0%" y1="0%" x2="100%" y2="0%"><stop data-v-29081953="" offset="0%" stop-color="#357ded" stop-opacity="1"></stop><stop data-v-29081953="" offset="100%" stop-color="#6957bf" stop-opacity="1"></stop></linearGradient></defs><g data-v-29081953="" id="367a9ed9-2d9e-407e-9bee-fe974a5d2e34" fill="url(#7f02381c-c525-4062-96e6-cdba3b720cc4)" stroke="none" transform="matrix(2.791878064465283,0,0,2.791878064465283,10.40609145165104,10.40609145165104)"><path d="M77.8 22.2L50 10.6 22.2 22.2 10.6 50l11.5 27.8L50 89.4l27.8-11.5L89.4 50 77.8 22.2zm9.1 26.3l-12.5-3.4v-.6c0-2-1.1-3.8-2.7-4.8L77.3 25l9.6 23.5zM45.8 60.3c-.3-2.3-1.6-4.2-3.5-5.3l5-12.1c.9.3 1.8.4 2.7.4s1.9-.1 2.7-.4l6.2 15c-.8.6-1.4 1.4-1.6 2.4H45.8zm15.4-3.1c-.2 0-.4 0-.7.1l-6.2-15c1.3-.7 2.3-1.7 3.1-2.9l6.2 3.4c-.2.6-.3 1.2-.3 1.8 0 1.9 1 3.6 2.4 4.6L62 57.3c-.3-.1-.5-.1-.8-.1zM38.7 54c-.8 0-1.6.1-2.3.4l-5.6-11.6c.9-.7 1.5-1.8 1.5-3.1v-.1l9.3-2.3c.7 2.1 2.2 3.9 4.2 4.9l-5 12c-.7-.1-1.4-.2-2.1-.2zm30.1-14.9c-1.8 0-3.3.8-4.3 2.1l-6.2-3.4c.5-1.1.7-2.3.7-3.5 0-1-.2-1.9-.5-2.8l17-7.1L70 39.2c-.4-.1-.8-.1-1.2-.1zm-27.7-3.5l-9.3 2.3c-.7-1.3-2-2.2-3.6-2.2h-.3l-3.6-11.3 17.1 7.1c-.3.9-.5 1.8-.5 2.8.1.5.1.9.2 1.3zm-15.7 6.9c.7.7 1.7 1.2 2.8 1.2.3 0 .6 0 .9-.1l5.6 11.6c-1 .6-1.8 1.5-2.4 2.5L13.6 50l11.8-7.5zM63.6 58l3.8-8.1c.5.1 1 .2 1.5.2 2.2 0 4.2-1.3 5-3.2L86 50.1 64.5 59c-.2-.4-.6-.7-.9-1zm13.1-34zm-18.9 5.9c-1.4-2.5-4-4.2-6.9-4.5V12.9l24 9.9-17.1 7.1zm-8.7-17v12.5c-3 .3-5.5 2-6.9 4.5l-17.1-7.1 24-9.9zM22.8 25.2l3.5 11c-1.2.7-2 2-2 3.4 0 .5.1.9.3 1.4l-11.2 7.1 9.4-22.9zM12.7 49.5zm.5 2.1l18.5 7.7c-.2.6-.3 1.2-.3 1.9 0 1.7.6 3.2 1.6 4.5l-9.9 10-9.9-24.1zm10.3 24.9zm.9.4l9.9-10c1.2.9 2.7 1.5 4.4 1.5.7 0 1.4-.1 2-.3l7.7 18.7-24-9.9zm17.9-9.5c1.9-1.1 3.3-3.1 3.5-5.4h11.5c.2 1 .8 1.9 1.7 2.4l-9 21.7-7.7-18.7zm18.3-2.3c.2 0 .4.1.6.1.8 0 1.5-.2 2.1-.6l12.3 12.3-24 9.9 9-21.7zm16.3 10.5L64.5 63.3c.4-.6.6-1.3.6-2.1 0-.2 0-.4-.1-.6l21.7-9-9.8 24zm10.4-26.1z"></path></g><!----></svg>